<?xml version="1.0" encoding="UTF-8"?>
<svg id="Logo_in_Farbe_umgewandelt" data-name="Logo in Farbe_umgewandelt" xmlns="http://www.w3.org/2000/svg" viewBox="0 0 636.08 142.22">
  <defs>
    <style>
      .cls-1 {
        fill: #fff;
      }

      .cls-2 {
        fill: #6cb6da;
      }

      .cls-3 {
        fill: #be0a26;
      }

      .cls-4 {
        fill: #00519e;
      }

      .cls-5 {
        fill: #f29400;
      }
    </style>
  </defs>
  <path class="cls-1" d="M87.25,89.95V30.76h11.18v24.33h26.47V30.76h11.18v59.19h-11.18v-24.42h-26.47v24.42h-11.18Z"/>
  <path class="cls-1" d="M162.8,89.95V41.2h-18.66v-10.44h48.5v10.44h-18.66v48.75h-11.18Z"/>
  <path class="cls-1" d="M201.52,89.95V30.76h11.18v48.75h25.49v10.44h-36.67Z"/>
  <path class="cls-1" d="M261.29,89.95V30.76h11.18v48.75h25.49v10.44h-36.67Z"/>
  <path class="cls-1" d="M327.05,91.19c-4.55,0-8.56-.98-12.02-2.94-3.47-1.96-6.18-4.66-8.14-8.1-1.96-3.44-2.94-7.38-2.94-11.82,0-4.85,.96-9.07,2.88-12.66,1.92-3.59,4.56-6.38,7.93-8.36s7.25-2.98,11.63-2.98c4.66,0,8.62,1.1,11.88,3.29,3.26,2.19,5.67,5.28,7.23,9.25,1.56,3.97,2.11,8.65,1.64,14.02h-11.06v-4.11c0-4.52-.72-7.77-2.16-9.76-1.44-1.99-3.79-2.98-7.05-2.98-3.81,0-6.61,1.16-8.41,3.47-1.8,2.32-2.69,5.73-2.69,10.26,0,4.14,.9,7.34,2.69,9.6,1.79,2.26,4.43,3.39,7.91,3.39,2.19,0,4.07-.48,5.63-1.44,1.56-.96,2.75-2.34,3.58-4.15l11.18,3.21c-1.67,4.06-4.31,7.21-7.91,9.45-3.6,2.25-7.54,3.37-11.82,3.37Zm-14.72-20.31v-8.3h29.43v8.3h-29.43Z"/>
  <path class="cls-1" d="M377.86,91.19c-4.47,0-8.38-1-11.76-3-3.37-2-6-4.76-7.87-8.28-1.88-3.52-2.82-7.57-2.82-12.15s.96-8.71,2.88-12.23c1.92-3.52,4.56-6.27,7.93-8.24,3.37-1.97,7.25-2.96,11.63-2.96s8.39,1,11.78,3c3.38,2,6.02,4.76,7.91,8.28,1.89,3.52,2.84,7.57,2.84,12.15s-.95,8.67-2.86,12.19c-1.9,3.52-4.55,6.28-7.93,8.26-3.38,1.99-7.3,2.98-11.74,2.98Zm0-10.44c3.59,0,6.27-1.21,8.04-3.64,1.77-2.43,2.65-5.54,2.65-9.35s-.9-7.1-2.69-9.45c-1.79-2.36-4.46-3.54-8-3.54-2.44,0-4.44,.55-6,1.64-1.56,1.1-2.72,2.62-3.47,4.56s-1.13,4.21-1.13,6.78c0,3.97,.9,7.13,2.69,9.47,1.79,2.34,4.43,3.51,7.91,3.51Z"/>
  <path class="cls-1" d="M410.82,89.95V45.56h9.95v14.72h1.4v29.68h-11.34Zm30.33,0v-20.96c0-1.01-.05-2.31-.16-3.88-.11-1.58-.45-3.16-1.03-4.75-.58-1.59-1.51-2.92-2.82-3.99s-3.14-1.6-5.53-1.6c-.96,0-1.99,.15-3.08,.45-1.1,.3-2.12,.88-3.08,1.75-.96,.86-1.75,2.13-2.36,3.8-.62,1.67-.92,3.89-.92,6.66l-6.41-3.04c0-3.51,.71-6.8,2.14-9.87,1.42-3.07,3.57-5.55,6.43-7.44,2.86-1.89,6.47-2.84,10.83-2.84,3.48,0,6.32,.59,8.51,1.77s3.9,2.67,5.12,4.48c1.22,1.81,2.09,3.69,2.61,5.65,.52,1.96,.84,3.75,.95,5.36,.11,1.62,.17,2.79,.17,3.54v24.91h-11.35Z"/>
  <path class="cls-1" d="M481.85,91.19c-4.08,0-7.66-1.03-10.73-3.08s-5.46-4.85-7.17-8.39c-1.71-3.54-2.57-7.52-2.57-11.96s.87-8.54,2.61-12.06c1.74-3.52,4.19-6.3,7.34-8.32,3.15-2.03,6.85-3.04,11.1-3.04s7.77,1.03,10.65,3.08c2.88,2.06,5.06,4.85,6.54,8.39,1.48,3.54,2.22,7.52,2.22,11.96s-.75,8.43-2.24,11.96c-1.49,3.54-3.72,6.33-6.68,8.39-2.96,2.06-6.65,3.08-11.06,3.08Zm1.81-9.95c2.49,0,4.49-.56,5.98-1.69,1.49-1.12,2.57-2.7,3.23-4.73,.66-2.03,.99-4.38,.99-7.07s-.33-5.04-.99-7.07c-.66-2.03-1.71-3.6-3.14-4.73-1.44-1.12-3.32-1.69-5.65-1.69-2.49,0-4.54,.61-6.15,1.83-1.6,1.22-2.79,2.85-3.56,4.89s-1.15,4.3-1.15,6.76,.37,4.76,1.11,6.8c.74,2.04,1.88,3.67,3.41,4.87,1.53,1.21,3.51,1.81,5.92,1.81Zm10.19,8.71v-30.42h-1.4V30.76h11.26v59.19h-9.87Z"/>
  <path class="cls-1" d="M517.53,39.39v-9.87h11.18v9.87h-11.18Zm0,50.56V45.56h11.18v44.39h-11.18Z"/>
  <path class="cls-1" d="M542.44,89.95V45.56h9.95v14.72h1.4v29.68h-11.34Zm30.33,0v-20.96c0-1.01-.05-2.31-.16-3.88-.11-1.58-.45-3.16-1.03-4.75-.58-1.59-1.51-2.92-2.82-3.99s-3.14-1.6-5.53-1.6c-.96,0-1.99,.15-3.08,.45-1.1,.3-2.12,.88-3.08,1.75-.96,.86-1.75,2.13-2.36,3.8-.62,1.67-.92,3.89-.92,6.66l-6.41-3.04c0-3.51,.71-6.8,2.14-9.87,1.42-3.07,3.57-5.55,6.43-7.44,2.86-1.89,6.47-2.84,10.83-2.84,3.48,0,6.32,.59,8.51,1.77s3.9,2.67,5.12,4.48c1.22,1.81,2.09,3.69,2.61,5.65,.52,1.96,.84,3.75,.95,5.36,.11,1.62,.17,2.79,.17,3.54v24.91h-11.35Z"/>
  <path class="cls-1" d="M614.29,91.19c-4.08,0-7.66-1.03-10.73-3.08s-5.46-4.85-7.17-8.39c-1.71-3.54-2.57-7.52-2.57-11.96s.87-8.54,2.61-12.06c1.74-3.52,4.19-6.3,7.34-8.32,3.15-2.03,6.85-3.04,11.1-3.04s7.77,1.03,10.65,3.08c2.88,2.06,5.06,4.85,6.54,8.39,1.48,3.54,2.22,7.52,2.22,11.96s-.75,8.43-2.24,11.96c-1.49,3.54-3.72,6.33-6.68,8.39-2.96,2.06-6.65,3.08-11.06,3.08Zm.99,19.73c-2.52,0-4.92-.4-7.19-1.21s-4.31-1.93-6.1-3.37c-1.8-1.44-3.25-3.12-4.38-5.04l10.36-5.02c.71,1.32,1.73,2.32,3.06,3,1.33,.68,2.77,1.03,4.34,1.03,1.67,0,3.25-.28,4.73-.84,1.48-.56,2.67-1.4,3.56-2.51s1.31-2.49,1.25-4.13v-12.91h1.4V45.56h9.78v47.44c0,1.1-.05,2.13-.14,3.1s-.27,1.94-.51,2.9c-.71,2.71-2.03,4.95-3.97,6.7-1.93,1.75-4.29,3.06-7.09,3.93-2.8,.86-5.82,1.29-9.08,1.29Zm.82-29.68c2.49,0,4.49-.56,5.98-1.69,1.49-1.12,2.57-2.7,3.23-4.73,.66-2.03,.99-4.38,.99-7.07s-.33-5.04-.99-7.07c-.66-2.03-1.71-3.6-3.14-4.73-1.44-1.12-3.32-1.69-5.65-1.69-2.49,0-4.54,.61-6.15,1.83-1.6,1.22-2.79,2.85-3.56,4.89s-1.15,4.3-1.15,6.76,.37,4.76,1.11,6.8c.74,2.04,1.88,3.67,3.41,4.87,1.53,1.21,3.51,1.81,5.92,1.81Z"/>
  <path class="cls-1" d="M86.79,141.51v-25.58h3.13v6.3h.35v19.28h-3.48Zm18.37,0v-13.05c0-1.42-.13-2.73-.4-3.92-.27-1.19-.69-2.23-1.28-3.13s-1.35-1.58-2.28-2.07c-.93-.49-2.07-.73-3.4-.73-1.22,0-2.3,.21-3.23,.64-.93,.43-1.72,1.04-2.35,1.84-.63,.8-1.12,1.76-1.45,2.9-.33,1.14-.49,2.43-.49,3.88l-2.45-.54c0-2.62,.45-4.82,1.36-6.61,.91-1.78,2.16-3.13,3.76-4.05,1.6-.92,3.43-1.37,5.5-1.37,1.52,0,2.85,.24,3.99,.71s2.1,1.11,2.89,1.92,1.43,1.73,1.92,2.76c.49,1.03,.84,2.13,1.06,3.29,.22,1.16,.33,2.32,.33,3.47v14.07h-3.48Z"/>
  <path class="cls-1" d="M126.65,142.22c-2.48,0-4.62-.55-6.43-1.66-1.81-1.11-3.22-2.66-4.22-4.67-1-2-1.51-4.36-1.51-7.06s.49-5.21,1.48-7.25c.99-2.04,2.38-3.61,4.17-4.71s3.92-1.66,6.36-1.66,4.65,.58,6.42,1.74c1.77,1.16,3.11,2.82,4.02,4.99,.91,2.16,1.32,4.75,1.25,7.75h-3.53v-1.23c-.06-3.32-.77-5.82-2.13-7.51s-3.34-2.54-5.94-2.54-4.82,.89-6.27,2.68c-1.45,1.79-2.18,4.33-2.18,7.63s.73,5.72,2.18,7.5c1.45,1.78,3.51,2.67,6.17,2.67,1.82,0,3.41-.42,4.76-1.27,1.36-.84,2.43-2.06,3.21-3.66l3.22,1.26c-1,2.23-2.48,3.95-4.43,5.18-1.95,1.22-4.16,1.84-6.62,1.84Zm-9.71-12.53v-2.91h19.4v2.91h-19.4Z"/>
  <path class="cls-1" d="M140.95,141.51l9.93-12.93-9.71-12.65h4.14l7.6,9.97,7.53-9.97h4.14l-9.71,12.65,9.95,12.93h-4.16l-7.74-10.26-7.79,10.26h-4.16Z"/>
  <path class="cls-1" d="M167.06,118.91v-2.99h16.65v2.99h-16.65Zm16.65,22.6c-1.43,.3-2.83,.42-4.22,.36-1.39-.06-2.63-.36-3.72-.9-1.09-.54-1.92-1.37-2.48-2.51-.45-.95-.7-1.91-.74-2.88-.04-.97-.06-2.08-.06-3.33v-23.43h3.43v23.28c0,1.07,.01,1.97,.04,2.69,.02,.72,.18,1.35,.48,1.91,.56,1.06,1.46,1.69,2.69,1.89,1.23,.21,2.76,.16,4.57-.14v3.06Z"/>
  <path class="cls-1" d="M201.24,141.51v-34.82h3.46v34.82h-3.46Z"/>
  <path class="cls-1" d="M223.82,142.22c-2.48,0-4.62-.55-6.43-1.66-1.81-1.11-3.22-2.66-4.22-4.67-1-2-1.51-4.36-1.51-7.06s.49-5.21,1.48-7.25c.99-2.04,2.38-3.61,4.17-4.71s3.92-1.66,6.36-1.66,4.65,.58,6.42,1.74c1.77,1.16,3.11,2.82,4.02,4.99,.91,2.16,1.32,4.75,1.25,7.75h-3.53v-1.23c-.06-3.32-.77-5.82-2.13-7.51s-3.34-2.54-5.94-2.54-4.82,.89-6.27,2.68c-1.45,1.79-2.18,4.33-2.18,7.63s.73,5.72,2.18,7.5c1.45,1.78,3.51,2.67,6.17,2.67,1.82,0,3.41-.42,4.76-1.27,1.36-.84,2.43-2.06,3.21-3.66l3.22,1.26c-1,2.23-2.48,3.95-4.43,5.18-1.95,1.22-4.16,1.84-6.62,1.84Zm-9.71-12.53v-2.91h19.4v2.91h-19.4Z"/>
  <path class="cls-1" d="M247.81,141.51l-9.22-25.58h3.5l7.5,21.04,7.46-21.04h3.55l-9.22,25.58h-3.58Z"/>
  <path class="cls-1" d="M275.96,142.22c-2.48,0-4.62-.55-6.43-1.66-1.81-1.11-3.22-2.66-4.22-4.67-1-2-1.51-4.36-1.51-7.06s.49-5.21,1.48-7.25c.99-2.04,2.38-3.61,4.17-4.71s3.92-1.66,6.36-1.66,4.65,.58,6.42,1.74c1.77,1.16,3.11,2.82,4.02,4.99,.91,2.16,1.32,4.75,1.25,7.75h-3.53v-1.23c-.06-3.32-.77-5.82-2.13-7.51s-3.34-2.54-5.94-2.54-4.82,.89-6.27,2.68c-1.45,1.79-2.18,4.33-2.18,7.63s.73,5.72,2.18,7.5c1.45,1.78,3.51,2.67,6.17,2.67,1.82,0,3.41-.42,4.76-1.27,1.36-.84,2.43-2.06,3.21-3.66l3.22,1.26c-1,2.23-2.48,3.95-4.43,5.18-1.95,1.22-4.16,1.84-6.62,1.84Zm-9.71-12.53v-2.91h19.4v2.91h-19.4Z"/>
  <path class="cls-1" d="M294.49,141.51v-34.82h3.46v34.82h-3.46Z"/>
  <g>
    <path class="cls-4" d="M18.59,51.5c-.42,0-.84-.15-1.18-.44L.62,36.4c-.39-.34-.62-.84-.62-1.36V1.8C0,1.09,.42,.44,1.07,.15,1.72-.13,2.48-.01,3.01,.47l34.83,31.55c.38,.34,.59,.83,.59,1.33s-.21,.99-.59,1.33l-18.04,16.34c-.34,.31-.78,.47-1.21,.47ZM3.6,34.23l14.96,13.06,15.38-13.94L3.6,5.86v28.37Z"/>
    <path class="cls-3" d="M1.8,120.71c-.25,0-.49-.05-.73-.15-.65-.29-1.07-.93-1.07-1.65v-33.25c0-.52,.22-1.01,.62-1.36l16.79-14.65c.69-.6,1.72-.59,2.39,.02l18.04,16.34c.38,.34,.59,.83,.59,1.33s-.21,.99-.59,1.33L3.01,120.25c-.34,.31-.77,.47-1.21,.47Zm1.8-34.23v28.37l30.35-27.49-15.38-13.94-14.96,13.06Z"/>
    <path class="cls-2" d="M66.44,62.16H30.8c-.44,0-.86-.16-1.18-.44l-12.21-10.66c-.39-.34-.61-.83-.62-1.34,0-.51,.21-1.01,.59-1.35l18.04-16.34c.69-.62,1.73-.62,2.42,0l29.81,27c.55,.5,.74,1.29,.47,1.98-.27,.69-.94,1.15-1.68,1.15Zm-34.96-3.6h30.29l-25.14-22.78-15.33,13.89,10.18,8.89Z"/>
    <path class="cls-5" d="M36.63,89.16c-.43,0-.87-.16-1.21-.47l-18.04-16.34c-.38-.34-.6-.84-.59-1.35s.23-1,.62-1.34l12.21-10.66c.33-.29,.75-.44,1.18-.44h35.63c.74,0,1.41,.46,1.68,1.15,.27,.69,.08,1.48-.47,1.98l-29.81,27c-.34,.31-.78,.47-1.21,.47Zm-15.33-18.12l15.33,13.89,25.14-22.78H31.48l-10.18,8.89Z"/>
  </g>
</svg>